<svg width="174" height="64" viewBox="0 0 174 64" fill="none" xmlns="http://www.w3.org/2000/svg">
<path d="M31.3809 45.8885L38.5 24.4432H41.3125L48.4609 45.8885H46.2637L44.3008 40.0438H35.3945L33.5195 45.8885H31.3809ZM39.833 25.9374C39.6865 26.3866 39.4424 27.163 39.1006 28.2665C38.7686 29.3602 38.5244 30.1561 38.3682 30.6542L35.8926 38.4471H43.8027L41.3125 30.6395C40.7461 28.8817 40.2529 27.3143 39.833 25.9374ZM56.3564 45.8885L49.0176 24.4432H51.2881L55.5801 37.1581C55.6875 37.4706 55.9609 38.3007 56.4004 39.6483C56.8496 40.9862 57.1914 42.0116 57.4258 42.7245C57.6602 42.0214 57.9971 41.0302 58.4365 39.7509C58.876 38.4716 59.1738 37.6073 59.3301 37.1581L63.5488 24.4432H65.7168L58.3779 45.8885H56.3564ZM82.416 45.8885H68.0605V24.4432H82.2549V26.0839H70.1992V33.6132H80.6875V35.2977H70.1992V44.2333H82.416V45.8885ZM84.8184 45.8885V24.4432H87.2061L100.434 42.6512V36.8944V24.4432H102.323V45.8885H100.39L86.7666 26.9921C86.7666 26.9921 86.7666 29.0184 86.7666 33.0712V45.8885H84.8184ZM119.491 37.4803V24.4432H121.835V37.1288C121.835 38.0468 121.879 38.8524 121.967 39.5458C122.055 40.2391 122.226 40.9081 122.479 41.5526C122.733 42.1874 123.07 42.7098 123.49 43.12C123.91 43.5302 124.462 43.8573 125.146 44.1014C125.839 44.3358 126.654 44.453 127.592 44.453C128.529 44.453 129.34 44.3358 130.023 44.1014C130.707 43.8573 131.254 43.5302 131.664 43.12C132.084 42.7098 132.416 42.1874 132.66 41.5526C132.914 40.9081 133.085 40.2391 133.173 39.5458C133.261 38.8524 133.305 38.0468 133.305 37.1288V24.4432H135.604V37.3778C135.604 40.4344 134.945 42.6805 133.627 44.1161C132.309 45.5419 130.268 46.2548 127.504 46.2548C124.809 46.2548 122.797 45.5565 121.469 44.16C120.15 42.7538 119.491 40.5272 119.491 37.4803ZM155.189 30.1415C155.189 31.6063 154.809 32.7977 154.047 33.7157C153.295 34.6239 152.133 35.288 150.561 35.7079L155.541 45.8885H153.256L148.393 36.0302H141.698V45.8885H139.574V24.4432H147.323C150.106 24.4432 152.113 24.9071 153.344 25.8348C154.574 26.7528 155.189 28.1884 155.189 30.1415ZM141.698 26.0253V34.3749H146.84C147.543 34.3749 148.158 34.3505 148.686 34.3016C149.223 34.2528 149.774 34.1405 150.341 33.9647C150.917 33.7889 151.386 33.5546 151.747 33.2616C152.118 32.9686 152.421 32.5634 152.655 32.0458C152.89 31.5184 153.007 30.8934 153.007 30.1708C153.007 29.4286 152.895 28.7987 152.67 28.2811C152.445 27.7538 152.162 27.3485 151.82 27.0653C151.488 26.7723 151.044 26.5477 150.487 26.3915C149.94 26.2255 149.428 26.1229 148.949 26.0839C148.471 26.0448 147.885 26.0253 147.191 26.0253H141.698ZM172.768 45.8885H158.412V24.4432H172.606V26.0839H160.551V33.6132H171.039V35.2977H160.551V44.2333H172.768V45.8885Z" fill="black"/>
<path d="M21.2695 46.0995H19.4062L14.3086 29.3651L9.17578 46.0995H6.92578L0.5625 23.3534L3.69141 22.6854L8.47266 40.6151L13.3242 23.037H15.6094L20.3555 40.58L25.2422 22.6854L27.668 23.3534L21.2695 46.0995Z" fill="black"/>
<rect width="3.58702" height="1.13274" rx="0.566372" transform="matrix(-1 0 0 1 105.587 16.4248)" fill="#A487B3"/>
<rect width="3.58702" height="1.13274" rx="0.566372" transform="matrix(-1 0 0 1 118.991 16.4248)" fill="#A487B3"/>
<path d="M112.384 18.0295H108.608L109.08 61.0737H111.865L112.384 18.0295Z" fill="white"/>
<rect width="3.20944" height="0.943953" rx="0.471976" transform="matrix(-1 0 0 1 112.101 15.1033)" fill="#A487B3"/>
<rect width="3.20944" height="0.943953" rx="0.471976" transform="matrix(-1 0 0 1 112.101 13.8761)" fill="#A487B3"/>
<rect width="3.20944" height="0.943953" rx="0.471976" transform="matrix(-1 0 0 1 112.101 12.649)" fill="#A487B3"/>
<rect width="3.20944" height="0.943953" rx="0.471976" transform="matrix(-1 0 0 1 112.101 11.4218)" fill="#A487B3"/>
<rect width="3.20944" height="0.943953" rx="0.471976" transform="matrix(-1 0 0 1 112.101 10.1947)" fill="#A487B3"/>
<rect width="3.20944" height="0.943953" rx="0.471976" transform="matrix(-1 0 0 1 112.101 8.96753)" fill="#A487B3"/>
<rect width="3.20944" height="0.943953" rx="0.471976" transform="matrix(-1 0 0 1 112.101 7.74042)" fill="#A487B3"/>
<rect width="3.20944" height="0.943953" rx="0.471976" transform="matrix(-1 0 0 1 112.101 6.51324)" fill="#A487B3"/>
<rect width="3.20944" height="0.943953" rx="0.471976" transform="matrix(-1 0 0 1 112.101 5.28613)" fill="#A487B3"/>
<rect width="3.20944" height="0.943953" rx="0.471976" transform="matrix(-1 0 0 1 112.101 4.05902)" fill="#A487B3"/>
<rect x="-0.943953" y="0.943953" width="1.88791" height="1.88791" rx="0.943953" transform="matrix(-1 0 0 1 110.496 0)" fill="white" stroke="#C4C4C4" stroke-width="1.88791"/>
<rect x="-0.471976" y="0.471976" width="0.943953" height="0.943953" rx="0.471976" transform="matrix(-1 0 0 1 110.496 0.94397)" fill="white" stroke="#C4C4C4" stroke-width="0.943953"/>
<path d="M112.384 18.0295H110.496V61.0737L111.865 60.6961L112.384 18.0295Z" fill="#C4C4C4"/>
<rect x="-0.306785" y="0.306785" width="0.613569" height="42.4307" rx="0.306785" transform="matrix(-1 0 0 1 110.543 18.0295)" fill="white" stroke="#C4C4C4" stroke-width="0.613569"/>
<path d="M111.865 61.0737H109.08L109.581 62.108C109.947 62.8661 111.03 62.859 111.387 62.0961L111.865 61.0737Z" fill="white"/>
<rect width="8.11799" height="1.13274" rx="0.566372" transform="matrix(-1 0 0 1 114.555 16.4248)" fill="#A487B3"/>
<circle r="0.283186" transform="matrix(-1 0 0 1 106.059 16.9911)" fill="#A487B3"/>
<circle r="0.283186" transform="matrix(-1 0 0 1 115.026 16.9911)" fill="#A487B3"/>
</svg>
