<svg width="16" height="18" viewBox="0 0 16 18" fill="none" xmlns="http://www.w3.org/2000/svg">
<circle cx="8" cy="8" r="7.5" stroke="white"/>
<path d="M7.11084 6.27148H8.31689V13H7.11084V6.27148ZM7.72021 4.81152C7.61442 4.81152 7.51497 4.79248 7.42188 4.75439C7.32878 4.71631 7.24837 4.66341 7.18066 4.5957C7.11296 4.52799 7.06006 4.44971 7.02197 4.36084C6.98389 4.26774 6.96484 4.16618 6.96484 4.05615C6.96484 3.94613 6.986 3.84245 7.02832 3.74512C7.07064 3.64779 7.12565 3.56315 7.19336 3.49121C7.2653 3.41927 7.34782 3.36426 7.44092 3.32617C7.53825 3.28385 7.63981 3.2627 7.74561 3.2627C7.84717 3.2627 7.94238 3.28385 8.03125 3.32617C8.12435 3.36426 8.20475 3.41927 8.27246 3.49121C8.34017 3.56315 8.39307 3.64779 8.43115 3.74512C8.46924 3.83822 8.48828 3.93766 8.48828 4.04346C8.48828 4.15771 8.46712 4.26351 8.4248 4.36084C8.38249 4.45394 8.32536 4.53434 8.25342 4.60205C8.18571 4.66553 8.10531 4.71631 8.01221 4.75439C7.91911 4.79248 7.82178 4.81152 7.72021 4.81152Z" fill="white"/>
</svg>
