<svg width="41" height="42" viewBox="0 0 41 42" fill="none" xmlns="http://www.w3.org/2000/svg">
<path d="M22.2695 31.2109H20.4062L15.3086 14.4766L10.1758 31.2109H7.92578L1.5625 8.46484L4.69141 7.79688L9.47266 25.7266L14.3242 8.14844H16.6094L21.3555 25.6914L26.2422 7.79688L28.668 8.46484L22.2695 31.2109Z" fill="#C4C4C4"/>
<path d="M21.2695 31.2109H19.4062L14.3086 14.4766L9.17578 31.2109H6.92578L0.5625 8.46484L3.69141 7.79688L8.47266 25.7266L13.3242 8.14844H15.6094L20.3555 25.6914L25.2422 7.79688L27.668 8.46484L21.2695 31.2109Z" fill="white"/>
<rect x="8.98291" y="36.4778" width="1.47778" height="0.619469" rx="0.309734" transform="rotate(-90 8.98291 36.4778)" fill="#A487B3"/>
<rect x="8.98291" y="42" width="1.47778" height="0.619469" rx="0.309734" transform="rotate(-90 8.98291 42)" fill="#A487B3"/>
<path d="M9.85938 39.2778V37.7222L33.3992 37.9167V39.0639L9.85938 39.2778Z" fill="white"/>
<rect x="8.25977" y="39.1611" width="1.32222" height="0.516224" rx="0.258112" transform="rotate(-90 8.25977 39.1611)" fill="#A487B3"/>
<rect x="7.58838" y="39.1611" width="1.32222" height="0.516224" rx="0.258112" transform="rotate(-90 7.58838 39.1611)" fill="#A487B3"/>
<rect x="6.91748" y="39.1611" width="1.32222" height="0.516224" rx="0.258112" transform="rotate(-90 6.91748 39.1611)" fill="#A487B3"/>
<rect x="6.24609" y="39.1611" width="1.32222" height="0.516224" rx="0.258112" transform="rotate(-90 6.24609 39.1611)" fill="#A487B3"/>
<rect x="5.5752" y="39.1611" width="1.32222" height="0.516224" rx="0.258112" transform="rotate(-90 5.5752 39.1611)" fill="#A487B3"/>
<rect x="4.90381" y="39.1611" width="1.32222" height="0.516224" rx="0.258112" transform="rotate(-90 4.90381 39.1611)" fill="#A487B3"/>
<rect x="4.23291" y="39.1611" width="1.32222" height="0.516224" rx="0.258112" transform="rotate(-90 4.23291 39.1611)" fill="#A487B3"/>
<rect x="3.56152" y="39.1611" width="1.32222" height="0.516224" rx="0.258112" transform="rotate(-90 3.56152 39.1611)" fill="#A487B3"/>
<rect x="2.89062" y="39.1611" width="1.32222" height="0.516224" rx="0.258112" transform="rotate(-90 2.89062 39.1611)" fill="#A487B3"/>
<rect x="2.21973" y="39.1611" width="1.32222" height="0.516224" rx="0.258112" transform="rotate(-90 2.21973 39.1611)" fill="#A487B3"/>
<rect x="0.388889" y="38.8889" width="0.777778" height="1.28712" rx="0.388889" transform="rotate(-90 0.388889 38.8889)" fill="white" stroke="#C4C4C4" stroke-width="0.777778"/>
<rect x="0.710558" y="38.6944" width="0.388889" height="0.643559" rx="0.194444" transform="rotate(-90 0.710558 38.6944)" fill="white" stroke="#C4C4C4" stroke-width="0.388889"/>
<path d="M9.85938 39.2778V38.5H33.3992L33.1927 39.0639L9.85938 39.2778Z" fill="#C4C4C4"/>
<rect x="9.98576" y="38.6459" width="0.252778" height="23.287" rx="0.126389" transform="rotate(-90 9.98576 38.6459)" fill="white" stroke="#C4C4C4" stroke-width="0.252778"/>
<path d="M33.3999 39.0639V37.9167V37.9167C33.9361 38.1121 33.9382 38.8742 33.3999 39.0639V39.0639Z" fill="white"/>
<rect x="8.98291" y="40.1722" width="3.34444" height="0.619469" rx="0.309734" transform="rotate(-90 8.98291 40.1722)" fill="#A487B3"/>
<ellipse cx="9.29159" cy="36.6722" rx="0.116667" ry="0.154867" transform="rotate(-90 9.29159 36.6722)" fill="#A487B3"/>
<ellipse cx="9.29159" cy="40.3667" rx="0.116667" ry="0.154867" transform="rotate(-90 9.29159 40.3667)" fill="#A487B3"/>
</svg>
