<svg width="41" height="38" viewBox="0 0 41 38" fill="none" xmlns="http://www.w3.org/2000/svg">
<path d="M22.2695 31.2109H20.4062L15.3086 14.4766L10.1758 31.2109H7.92578L1.5625 8.46484L4.69141 7.79688L9.47266 25.7266L14.3242 8.14844H16.6094L21.3555 25.6914L26.2422 7.79688L28.668 8.46484L22.2695 31.2109Z" fill="#C4C4C4"/>
<path d="M21.2695 31.2109H19.4062L14.3086 14.4766L9.17578 31.2109H6.92578L0.5625 8.46484L3.69141 7.79688L8.47266 25.7266L13.3242 8.14844H15.6094L20.3555 25.6914L25.2422 7.79688L27.668 8.46484L21.2695 31.2109Z" fill="white"/>
<rect width="1.51327" height="0.477876" rx="0.238938" transform="matrix(-1 0 0 1 32.5131 12.9292)" fill="#A487B3"/>
<rect width="1.51327" height="0.477876" rx="0.238938" transform="matrix(-1 0 0 1 38.168 12.9292)" fill="#A487B3"/>
<path d="M35.3804 13.6062H33.7875L33.9866 31.7655H35.1614L35.3804 13.6062Z" fill="white"/>
<rect width="1.35398" height="0.39823" rx="0.199115" transform="matrix(-1 0 0 1 35.261 12.3717)" fill="#A487B3"/>
<rect width="1.35398" height="0.39823" rx="0.199115" transform="matrix(-1 0 0 1 35.261 11.854)" fill="#A487B3"/>
<rect width="1.35398" height="0.39823" rx="0.199115" transform="matrix(-1 0 0 1 35.261 11.3363)" fill="#A487B3"/>
<rect width="1.35398" height="0.39823" rx="0.199115" transform="matrix(-1 0 0 1 35.261 10.8186)" fill="#A487B3"/>
<rect width="1.35398" height="0.39823" rx="0.199115" transform="matrix(-1 0 0 1 35.261 10.3009)" fill="#A487B3"/>
<rect width="1.35398" height="0.39823" rx="0.199115" transform="matrix(-1 0 0 1 35.261 9.7832)" fill="#A487B3"/>
<rect width="1.35398" height="0.39823" rx="0.199115" transform="matrix(-1 0 0 1 35.261 9.2655)" fill="#A487B3"/>
<rect width="1.35398" height="0.39823" rx="0.199115" transform="matrix(-1 0 0 1 35.261 8.7478)" fill="#A487B3"/>
<rect width="1.35398" height="0.39823" rx="0.199115" transform="matrix(-1 0 0 1 35.261 8.2301)" fill="#A487B3"/>
<rect width="1.35398" height="0.39823" rx="0.199115" transform="matrix(-1 0 0 1 35.261 7.7124)" fill="#A487B3"/>
<rect x="-0.39823" y="0.39823" width="0.79646" height="0.79646" rx="0.39823" transform="matrix(-1 0 0 1 34.584 6)" fill="white" stroke="#C4C4C4" stroke-width="0.79646"/>
<rect x="-0.199115" y="0.199115" width="0.39823" height="0.39823" rx="0.199115" transform="matrix(-1 0 0 1 34.584 6.39825)" fill="white" stroke="#C4C4C4" stroke-width="0.39823"/>
<path d="M35.3804 13.6062H34.584V31.7655L35.1614 31.6062L35.3804 13.6062Z" fill="#C4C4C4"/>
<rect x="-0.129425" y="0.129425" width="0.25885" height="17.9004" rx="0.129425" transform="matrix(-1 0 0 1 34.6039 13.6062)" fill="white" stroke="#C4C4C4" stroke-width="0.25885"/>
<path d="M35.1615 31.7655H33.9867C34.2246 32.2571 34.9301 32.2602 35.1615 31.7655Z" fill="white"/>
<rect width="3.42478" height="0.477876" rx="0.238938" transform="matrix(-1 0 0 1 36.2963 12.9292)" fill="#A487B3"/>
<circle r="0.119469" transform="matrix(-1 0 0 1 32.7123 13.1681)" fill="#A487B3"/>
<circle r="0.119469" transform="matrix(-1 0 0 1 36.4953 13.1681)" fill="#A487B3"/>
</svg>
